<svg xmlns="http://www.w3.org/2000/svg" width="9241" height="346">
  <style>rect { fill: #ff0000; stroke:black }
 text { font-size:8px; font-family:verdana; stroke:none }
 line { fill:none; stroke:#000000; stroke-width:1px; stroke-linecap:round }
 path { fill:none; stroke:#000000; stroke-width:1px }</style>
  <g transform="scale(2)">
    <rect style="fill:#00ff00" x="1" y="151" width="48" height="20" rx="3" ry="3"/>
    <text x="25" y="161" text-anchor="middle" dominant-baseline="middle">Faviet</text>
    <line x1="25" y1="136" x2="25" y2="151"/>
    <rect style="fill:#00ff00" x="54" y="151" width="32" height="20" rx="3" ry="3"/>
    <text x="70" y="161" text-anchor="middle" dominant-baseline="middle">Chen</text>
    <line x1="70" y1="136" x2="70" y2="151"/>
    <rect style="fill:#00ff00" x="79" y="101" width="72" height="20" rx="3" ry="3"/>
    <text x="115" y="111" text-anchor="middle" dominant-baseline="middle">Greenberg</text>
    <line x1="115" y1="86" x2="115" y2="101"/>
    <line x1="25" y1="136" x2="213" y2="136"/>
    <line x1="115" y1="121" x2="115" y2="136"/>
    <rect style="fill:#00ff00" x="91" y="151" width="56" height="20" rx="3" ry="3"/>
    <text x="119" y="161" text-anchor="middle" dominant-baseline="middle">Sciarra</text>
    <line x1="119" y1="136" x2="119" y2="151"/>
    <rect style="fill:#00ff00" x="152" y="151" width="40" height="20" rx="3" ry="3"/>
    <text x="172" y="161" text-anchor="middle" dominant-baseline="middle">Urman</text>
    <line x1="172" y1="136" x2="172" y2="151"/>
    <rect style="fill:#00ff00" x="156" y="101" width="48" height="20" rx="3" ry="3"/>
    <text x="180" y="111" text-anchor="middle" dominant-baseline="middle">Whalen</text>
    <line x1="180" y1="86" x2="180" y2="101"/>
    <rect style="fill:#00ff00" x="189" y="51" width="56" height="20" rx="3" ry="3"/>
    <text x="217" y="61" text-anchor="middle" dominant-baseline="middle">Kochhar</text>
    <line x1="217" y1="36" x2="217" y2="51"/>
    <line x1="115" y1="86" x2="327" y2="86"/>
    <line x1="217" y1="71" x2="217" y2="86"/>
    <rect style="fill:#00ff00" x="197" y="151" width="32" height="20" rx="3" ry="3"/>
    <text x="213" y="161" text-anchor="middle" dominant-baseline="middle">Popp</text>
    <line x1="213" y1="136" x2="213" y2="151"/>
    <rect style="fill:#00ff00" x="209" y="101" width="48" height="20" rx="3" ry="3"/>
    <text x="233" y="111" text-anchor="middle" dominant-baseline="middle">Mavris</text>
    <line x1="233" y1="86" x2="233" y2="101"/>
    <rect style="fill:#00ff00" x="262" y="101" width="32" height="20" rx="3" ry="3"/>
    <text x="278" y="111" text-anchor="middle" dominant-baseline="middle">Baer</text>
    <line x1="278" y1="86" x2="278" y2="101"/>
    <rect style="fill:#00ff00" x="299" y="101" width="56" height="20" rx="3" ry="3"/>
    <text x="327" y="111" text-anchor="middle" dominant-baseline="middle">Higgins</text>
    <line x1="327" y1="86" x2="327" y2="101"/>
    <line x1="327" y1="136" x2="327" y2="136"/>
    <line x1="327" y1="121" x2="327" y2="136"/>
    <rect style="fill:#00ff00" x="307" y="151" width="40" height="20" rx="3" ry="3"/>
    <text x="327" y="161" text-anchor="middle" dominant-baseline="middle">Gietz</text>
    <line x1="327" y1="136" x2="327" y2="151"/>
    <rect style="fill:#00ff00" x="367" y="151" width="40" height="20" rx="3" ry="3"/>
    <text x="387" y="161" text-anchor="middle" dominant-baseline="middle">Ernst</text>
    <line x1="387" y1="136" x2="387" y2="151"/>
    <rect style="fill:#00ff00" x="412" y="151" width="48" height="20" rx="3" ry="3"/>
    <text x="436" y="161" text-anchor="middle" dominant-baseline="middle">Austin</text>
    <line x1="436" y1="136" x2="436" y2="151"/>
    <rect style="fill:#00ff00" x="454.5" y="51" width="56" height="20" rx="3" ry="3"/>
    <text x="482.5" y="61" text-anchor="middle" dominant-baseline="middle">De Haan</text>
    <line x1="482.5" y1="36" x2="482.5" y2="51"/>
    <line x1="482.5" y1="86" x2="482.5" y2="86"/>
    <line x1="482.5" y1="71" x2="482.5" y2="86"/>
    <rect style="fill:#00ff00" x="458.5" y="101" width="48" height="20" rx="3" ry="3"/>
    <text x="482.5" y="111" text-anchor="middle" dominant-baseline="middle">Hunold</text>
    <line x1="482.5" y1="86" x2="482.5" y2="101"/>
    <line x1="387" y1="136" x2="570" y2="136"/>
    <line x1="482.5" y1="121" x2="482.5" y2="136"/>
    <rect style="fill:#00ff00" x="465" y="151" width="72" height="20" rx="3" ry="3"/>
    <text x="501" y="161" text-anchor="middle" dominant-baseline="middle">Pataballa</text>
    <line x1="501" y1="136" x2="501" y2="151"/>
    <rect style="fill:#00ff00" x="526.5" y="101" width="32" height="20" rx="3" ry="3"/>
    <text x="542.5" y="111" text-anchor="middle" dominant-baseline="middle">Khoo</text>
    <line x1="542.5" y1="86" x2="542.5" y2="101"/>
    <rect style="fill:#00ff00" x="542" y="151" width="56" height="20" rx="3" ry="3"/>
    <text x="570" y="161" text-anchor="middle" dominant-baseline="middle">Lorentz</text>
    <line x1="570" y1="136" x2="570" y2="151"/>
    <rect style="fill:#00ff00" x="563.5" y="101" width="40" height="20" rx="3" ry="3"/>
    <text x="583.5" y="111" text-anchor="middle" dominant-baseline="middle">Baida</text>
    <line x1="583.5" y1="86" x2="583.5" y2="101"/>
    <rect style="fill:#00ff00" x="608.5" y="101" width="48" height="20" rx="3" ry="3"/>
    <text x="632.5" y="111" text-anchor="middle" dominant-baseline="middle">Tobias</text>
    <line x1="632.5" y1="86" x2="632.5" y2="101"/>
    <rect style="fill:#00ff00" x="628.5" y="51" width="64" height="20" rx="3" ry="3"/>
    <text x="660.5" y="61" text-anchor="middle" dominant-baseline="middle">Raphaely</text>
    <line x1="660.5" y1="36" x2="660.5" y2="51"/>
    <line x1="542.5" y1="86" x2="754.5" y2="86"/>
    <line x1="660.5" y1="71" x2="660.5" y2="86"/>
    <rect style="fill:#00ff00" x="661.5" y="101" width="48" height="20" rx="3" ry="3"/>
    <text x="685.5" y="111" text-anchor="middle" dominant-baseline="middle">Himuro</text>
    <line x1="685.5" y1="86" x2="685.5" y2="101"/>
    <rect style="fill:#00ff00" x="714.5" y="101" width="80" height="20" rx="3" ry="3"/>
    <text x="754.5" y="111" text-anchor="middle" dominant-baseline="middle">Colmenares</text>
    <line x1="754.5" y1="86" x2="754.5" y2="101"/>
    <rect style="fill:#00ff00" x="814.5" y="101" width="40" height="20" rx="3" ry="3"/>
    <text x="834.5" y="111" text-anchor="middle" dominant-baseline="middle">Nayer</text>
    <line x1="834.5" y1="86" x2="834.5" y2="101"/>
    <rect style="fill:#00ff00" x="859.5" y="101" width="88" height="20" rx="3" ry="3"/>
    <text x="903.5" y="111" text-anchor="middle" dominant-baseline="middle">Mikkilineni</text>
    <line x1="903.5" y1="86" x2="903.5" y2="101"/>
    <rect style="fill:#00ff00" x="952.5" y="101" width="48" height="20" rx="3" ry="3"/>
    <text x="976.5" y="111" text-anchor="middle" dominant-baseline="middle">Landry</text>
    <line x1="976.5" y1="86" x2="976.5" y2="101"/>
    <rect style="fill:#00ff00" x="1005.5" y="101" width="48" height="20" rx="3" ry="3"/>
    <text x="1029.5" y="111" text-anchor="middle" dominant-baseline="middle">Markle</text>
    <line x1="1029.5" y1="86" x2="1029.5" y2="101"/>
    <rect style="fill:#00ff00" x="1024" y="51" width="40" height="20" rx="3" ry="3"/>
    <text x="1044" y="61" text-anchor="middle" dominant-baseline="middle">Weiss</text>
    <line x1="1044" y1="36" x2="1044" y2="51"/>
    <line x1="834.5" y1="86" x2="1253.5" y2="86"/>
    <line x1="1044" y1="71" x2="1044" y2="86"/>
    <rect style="fill:#00ff00" x="1058.5" y="101" width="48" height="20" rx="3" ry="3"/>
    <text x="1082.5" y="111" text-anchor="middle" dominant-baseline="middle">Taylor</text>
    <line x1="1082.5" y1="86" x2="1082.5" y2="101"/>
    <rect style="fill:#00ff00" x="1111.5" y="101" width="48" height="20" rx="3" ry="3"/>
    <text x="1135.5" y="111" text-anchor="middle" dominant-baseline="middle">Fleaur</text>
    <line x1="1135.5" y1="86" x2="1135.5" y2="101"/>
    <rect style="fill:#00ff00" x="1164.5" y="101" width="64" height="20" rx="3" ry="3"/>
    <text x="1196.5" y="111" text-anchor="middle" dominant-baseline="middle">Sullivan</text>
    <line x1="1196.5" y1="86" x2="1196.5" y2="101"/>
    <rect style="fill:#00ff00" x="1233.5" y="101" width="40" height="20" rx="3" ry="3"/>
    <text x="1253.5" y="111" text-anchor="middle" dominant-baseline="middle">Geoni</text>
    <line x1="1253.5" y1="86" x2="1253.5" y2="101"/>
    <rect style="fill:#00ff00" x="1293.5" y="101" width="48" height="20" rx="3" ry="3"/>
    <text x="1317.5" y="111" text-anchor="middle" dominant-baseline="middle">Bissot</text>
    <line x1="1317.5" y1="86" x2="1317.5" y2="101"/>
    <rect style="fill:#00ff00" x="1346.5" y="101" width="64" height="20" rx="3" ry="3"/>
    <text x="1378.5" y="111" text-anchor="middle" dominant-baseline="middle">Atkinson</text>
    <line x1="1378.5" y1="86" x2="1378.5" y2="101"/>
    <rect style="fill:#00ff00" x="1415.5" y="101" width="48" height="20" rx="3" ry="3"/>
    <text x="1439.5" y="111" text-anchor="middle" dominant-baseline="middle">Marlow</text>
    <line x1="1439.5" y1="86" x2="1439.5" y2="101"/>
    <rect style="fill:#00ff00" x="1468.5" y="101" width="40" height="20" rx="3" ry="3"/>
    <text x="1488.5" y="111" text-anchor="middle" dominant-baseline="middle">Olson</text>
    <line x1="1488.5" y1="86" x2="1488.5" y2="101"/>
    <rect style="fill:#00ff00" x="1499" y="51" width="40" height="20" rx="3" ry="3"/>
    <text x="1519" y="61" text-anchor="middle" dominant-baseline="middle">Fripp</text>
    <line x1="1519" y1="36" x2="1519" y2="51"/>
    <line x1="1317.5" y1="86" x2="1720.5" y2="86"/>
    <line x1="1519" y1="71" x2="1519" y2="86"/>
    <rect style="fill:#00ff00" x="1513.5" y="101" width="64" height="20" rx="3" ry="3"/>
    <text x="1545.5" y="111" text-anchor="middle" dominant-baseline="middle">Sarchand</text>
    <line x1="1545.5" y1="86" x2="1545.5" y2="101"/>
    <rect style="fill:#00ff00" x="1582.5" y="101" width="32" height="20" rx="3" ry="3"/>
    <text x="1598.5" y="111" text-anchor="middle" dominant-baseline="middle">Bull</text>
    <line x1="1598.5" y1="86" x2="1598.5" y2="101"/>
    <rect style="fill:#00ff00" x="1619.5" y="101" width="72" height="20" rx="3" ry="3"/>
    <text x="1655.5" y="111" text-anchor="middle" dominant-baseline="middle">Dellinger</text>
    <line x1="1655.5" y1="86" x2="1655.5" y2="101"/>
    <rect style="fill:#00ff00" x="1696.5" y="101" width="48" height="20" rx="3" ry="3"/>
    <text x="1720.5" y="111" text-anchor="middle" dominant-baseline="middle">Cabrio</text>
    <line x1="1720.5" y1="86" x2="1720.5" y2="101"/>
    <rect style="fill:#00ff00" x="1764.5" y="101" width="48" height="20" rx="3" ry="3"/>
    <text x="1788.5" y="111" text-anchor="middle" dominant-baseline="middle">Mallin</text>
    <line x1="1788.5" y1="86" x2="1788.5" y2="101"/>
    <rect style="fill:#00ff00" x="1817.5" y="101" width="48" height="20" rx="3" ry="3"/>
    <text x="1841.5" y="111" text-anchor="middle" dominant-baseline="middle">Rogers</text>
    <line x1="1841.5" y1="86" x2="1841.5" y2="101"/>
    <rect style="fill:#00ff00" x="1870.5" y="101" width="24" height="20" rx="3" ry="3"/>
    <text x="1882.5" y="111" text-anchor="middle" dominant-baseline="middle">Gee</text>
    <line x1="1882.5" y1="86" x2="1882.5" y2="101"/>
    <rect style="fill:#00ff00" x="1899.5" y="101" width="80" height="20" rx="3" ry="3"/>
    <text x="1939.5" y="111" text-anchor="middle" dominant-baseline="middle">Philtanker</text>
    <line x1="1939.5" y1="86" x2="1939.5" y2="101"/>
    <rect style="fill:#00ff00" x="1938" y="51" width="64" height="20" rx="3" ry="3"/>
    <text x="1970" y="61" text-anchor="middle" dominant-baseline="middle">Kaufling</text>
    <line x1="1970" y1="36" x2="1970" y2="51"/>
    <line x1="1788.5" y1="86" x2="2147.5" y2="86"/>
    <line x1="1970" y1="71" x2="1970" y2="86"/>
    <rect style="fill:#00ff00" x="1984.5" y="101" width="40" height="20" rx="3" ry="3"/>
    <text x="2004.5" y="111" text-anchor="middle" dominant-baseline="middle">Chung</text>
    <line x1="2004.5" y1="86" x2="2004.5" y2="101"/>
    <rect style="fill:#00ff00" x="2029.5" y="101" width="40" height="20" rx="3" ry="3"/>
    <text x="2049.5" y="111" text-anchor="middle" dominant-baseline="middle">Dilly</text>
    <line x1="2049.5" y1="86" x2="2049.5" y2="101"/>
    <rect style="fill:#00ff00" x="2074.5" y="101" width="40" height="20" rx="3" ry="3"/>
    <text x="2094.5" y="111" text-anchor="middle" dominant-baseline="middle">Gates</text>
    <line x1="2094.5" y1="86" x2="2094.5" y2="101"/>
    <rect style="fill:#00ff00" x="2119.5" y="101" width="56" height="20" rx="3" ry="3"/>
    <text x="2147.5" y="111" text-anchor="middle" dominant-baseline="middle">Perkins</text>
    <line x1="2147.5" y1="86" x2="2147.5" y2="101"/>
    <rect style="fill:#00ff00" x="2195.5" y="101" width="48" height="20" rx="3" ry="3"/>
    <text x="2219.5" y="111" text-anchor="middle" dominant-baseline="middle">Ladwig</text>
    <line x1="2219.5" y1="86" x2="2219.5" y2="101"/>
    <rect style="fill:#00ff00" x="2248.5" y="101" width="48" height="20" rx="3" ry="3"/>
    <text x="2272.5" y="111" text-anchor="middle" dominant-baseline="middle">Stiles</text>
    <line x1="2272.5" y1="86" x2="2272.5" y2="101"/>
    <rect style="fill:#00ff00" x="2301.5" y="101" width="24" height="20" rx="3" ry="3"/>
    <text x="2313.5" y="111" text-anchor="middle" dominant-baseline="middle">Seo</text>
    <line x1="2313.5" y1="86" x2="2313.5" y2="101"/>
    <rect style="fill:#00ff00" x="2330.5" y="101" width="40" height="20" rx="3" ry="3"/>
    <text x="2350.5" y="111" text-anchor="middle" dominant-baseline="middle">Patel</text>
    <line x1="2350.5" y1="86" x2="2350.5" y2="101"/>
    <rect style="fill:#00ff00" x="2353" y="51" width="56" height="20" rx="3" ry="3"/>
    <text x="2381" y="61" text-anchor="middle" dominant-baseline="middle">Vollman</text>
    <line x1="2381" y1="36" x2="2381" y2="51"/>
    <line x1="2219.5" y1="86" x2="2546.5" y2="86"/>
    <line x1="2381" y1="71" x2="2381" y2="86"/>
    <rect style="fill:#00ff00" x="2375.5" y="101" width="32" height="20" rx="3" ry="3"/>
    <text x="2391.5" y="111" text-anchor="middle" dominant-baseline="middle">Bell</text>
    <line x1="2391.5" y1="86" x2="2391.5" y2="101"/>
    <rect style="fill:#00ff00" x="2387.75" y="1" width="32" height="20" rx="3" ry="3"/>
    <text x="2403.75" y="11" text-anchor="middle" dominant-baseline="middle">King</text>
    <line x1="217" y1="36" x2="4582.5" y2="36"/>
    <line x1="2403.75" y1="21" x2="2403.75" y2="36"/>
    <rect style="fill:#00ff00" x="2412.5" y="101" width="56" height="20" rx="3" ry="3"/>
    <text x="2440.5" y="111" text-anchor="middle" dominant-baseline="middle">Everett</text>
    <line x1="2440.5" y1="86" x2="2440.5" y2="101"/>
    <rect style="fill:#00ff00" x="2473.5" y="101" width="48" height="20" rx="3" ry="3"/>
    <text x="2497.5" y="111" text-anchor="middle" dominant-baseline="middle">McCain</text>
    <line x1="2497.5" y1="86" x2="2497.5" y2="101"/>
    <rect style="fill:#00ff00" x="2526.5" y="101" width="40" height="20" rx="3" ry="3"/>
    <text x="2546.5" y="111" text-anchor="middle" dominant-baseline="middle">Jones</text>
    <line x1="2546.5" y1="86" x2="2546.5" y2="101"/>
    <rect style="fill:#00ff00" x="2586.5" y="101" width="32" height="20" rx="3" ry="3"/>
    <text x="2602.5" y="111" text-anchor="middle" dominant-baseline="middle">Rajs</text>
    <line x1="2602.5" y1="86" x2="2602.5" y2="101"/>
    <rect style="fill:#00ff00" x="2623.5" y="101" width="48" height="20" rx="3" ry="3"/>
    <text x="2647.5" y="111" text-anchor="middle" dominant-baseline="middle">Davies</text>
    <line x1="2647.5" y1="86" x2="2647.5" y2="101"/>
    <rect style="fill:#00ff00" x="2676.5" y="101" width="40" height="20" rx="3" ry="3"/>
    <text x="2696.5" y="111" text-anchor="middle" dominant-baseline="middle">Matos</text>
    <line x1="2696.5" y1="86" x2="2696.5" y2="101"/>
    <rect style="fill:#00ff00" x="2721.5" y="101" width="48" height="20" rx="3" ry="3"/>
    <text x="2745.5" y="111" text-anchor="middle" dominant-baseline="middle">Vargas</text>
    <line x1="2745.5" y1="86" x2="2745.5" y2="101"/>
    <rect style="fill:#00ff00" x="2756" y="51" width="56" height="20" rx="3" ry="3"/>
    <text x="2784" y="61" text-anchor="middle" dominant-baseline="middle">Mourgos</text>
    <line x1="2784" y1="36" x2="2784" y2="51"/>
    <line x1="2602.5" y1="86" x2="2961.5" y2="86"/>
    <line x1="2784" y1="71" x2="2784" y2="86"/>
    <rect style="fill:#00ff00" x="2774.5" y="101" width="40" height="20" rx="3" ry="3"/>
    <text x="2794.5" y="111" text-anchor="middle" dominant-baseline="middle">Walsh</text>
    <line x1="2794.5" y1="86" x2="2794.5" y2="101"/>
    <rect style="fill:#00ff00" x="2819.5" y="101" width="48" height="20" rx="3" ry="3"/>
    <text x="2843.5" y="111" text-anchor="middle" dominant-baseline="middle">Feeney</text>
    <line x1="2843.5" y1="86" x2="2843.5" y2="101"/>
    <rect style="fill:#00ff00" x="2872.5" y="101" width="64" height="20" rx="3" ry="3"/>
    <text x="2904.5" y="111" text-anchor="middle" dominant-baseline="middle">OConnell</text>
    <line x1="2904.5" y1="86" x2="2904.5" y2="101"/>
    <rect style="fill:#00ff00" x="2941.5" y="101" width="40" height="20" rx="3" ry="3"/>
    <text x="2961.5" y="111" text-anchor="middle" dominant-baseline="middle">Grant</text>
    <line x1="2961.5" y1="86" x2="2961.5" y2="101"/>
    <rect style="fill:#00ff00" x="3001.5" y="101" width="48" height="20" rx="3" ry="3"/>
    <text x="3025.5" y="111" text-anchor="middle" dominant-baseline="middle">Tucker</text>
    <line x1="3025.5" y1="86" x2="3025.5" y2="101"/>
    <rect style="fill:#00ff00" x="3054.5" y="101" width="72" height="20" rx="3" ry="3"/>
    <text x="3090.5" y="111" text-anchor="middle" dominant-baseline="middle">Bernstein</text>
    <line x1="3090.5" y1="86" x2="3090.5" y2="101"/>
    <rect style="fill:#00ff00" x="3131.5" y="101" width="32" height="20" rx="3" ry="3"/>
    <text x="3147.5" y="111" text-anchor="middle" dominant-baseline="middle">Hall</text>
    <line x1="3147.5" y1="86" x2="3147.5" y2="101"/>
    <rect style="fill:#00ff00" x="3146" y="51" width="56" height="20" rx="3" ry="3"/>
    <text x="3174" y="61" text-anchor="middle" dominant-baseline="middle">Russell</text>
    <line x1="3174" y1="36" x2="3174" y2="51"/>
    <line x1="3025.5" y1="86" x2="3318.5" y2="86"/>
    <line x1="3174" y1="71" x2="3174" y2="86"/>
    <rect style="fill:#00ff00" x="3168.5" y="101" width="40" height="20" rx="3" ry="3"/>
    <text x="3188.5" y="111" text-anchor="middle" dominant-baseline="middle">Olsen</text>
    <line x1="3188.5" y1="86" x2="3188.5" y2="101"/>
    <rect style="fill:#00ff00" x="3213.5" y="101" width="72" height="20" rx="3" ry="3"/>
    <text x="3249.5" y="111" text-anchor="middle" dominant-baseline="middle">Cambrault</text>
    <line x1="3249.5" y1="86" x2="3249.5" y2="101"/>
    <rect style="fill:#00ff00" x="3290.5" y="101" width="56" height="20" rx="3" ry="3"/>
    <text x="3318.5" y="111" text-anchor="middle" dominant-baseline="middle">Tuvault</text>
    <line x1="3318.5" y1="86" x2="3318.5" y2="101"/>
    <rect style="fill:#00ff00" x="3366.5" y="101" width="32" height="20" rx="3" ry="3"/>
    <text x="3382.5" y="111" text-anchor="middle" dominant-baseline="middle">King</text>
    <line x1="3382.5" y1="86" x2="3382.5" y2="101"/>
    <rect style="fill:#00ff00" x="3403.5" y="101" width="40" height="20" rx="3" ry="3"/>
    <text x="3423.5" y="111" text-anchor="middle" dominant-baseline="middle">Sully</text>
    <line x1="3423.5" y1="86" x2="3423.5" y2="101"/>
    <rect style="fill:#00ff00" x="3448.5" y="101" width="48" height="20" rx="3" ry="3"/>
    <text x="3472.5" y="111" text-anchor="middle" dominant-baseline="middle">McEwen</text>
    <line x1="3472.5" y1="86" x2="3472.5" y2="101"/>
    <rect style="fill:#00ff00" x="3471" y="51" width="64" height="20" rx="3" ry="3"/>
    <text x="3503" y="61" text-anchor="middle" dominant-baseline="middle">Partners</text>
    <line x1="3503" y1="36" x2="3503" y2="51"/>
    <line x1="3382.5" y1="86" x2="3615.5" y2="86"/>
    <line x1="3503" y1="71" x2="3503" y2="86"/>
    <rect style="fill:#00ff00" x="3501.5" y="101" width="40" height="20" rx="3" ry="3"/>
    <text x="3521.5" y="111" text-anchor="middle" dominant-baseline="middle">Smith</text>
    <line x1="3521.5" y1="86" x2="3521.5" y2="101"/>
    <rect style="fill:#00ff00" x="3546.5" y="101" width="40" height="20" rx="3" ry="3"/>
    <text x="3566.5" y="111" text-anchor="middle" dominant-baseline="middle">Doran</text>
    <line x1="3566.5" y1="86" x2="3566.5" y2="101"/>
    <rect style="fill:#00ff00" x="3591.5" y="101" width="48" height="20" rx="3" ry="3"/>
    <text x="3615.5" y="111" text-anchor="middle" dominant-baseline="middle">Sewall</text>
    <line x1="3615.5" y1="86" x2="3615.5" y2="101"/>
    <rect style="fill:#00ff00" x="3659.5" y="101" width="56" height="20" rx="3" ry="3"/>
    <text x="3687.5" y="111" text-anchor="middle" dominant-baseline="middle">Vishney</text>
    <line x1="3687.5" y1="86" x2="3687.5" y2="101"/>
    <rect style="fill:#00ff00" x="3720.5" y="101" width="48" height="20" rx="3" ry="3"/>
    <text x="3744.5" y="111" text-anchor="middle" dominant-baseline="middle">Greene</text>
    <line x1="3744.5" y1="86" x2="3744.5" y2="101"/>
    <rect style="fill:#00ff00" x="3764" y="51" width="72" height="20" rx="3" ry="3"/>
    <text x="3800" y="61" text-anchor="middle" dominant-baseline="middle">Errazuriz</text>
    <line x1="3800" y1="36" x2="3800" y2="51"/>
    <line x1="3687.5" y1="86" x2="3920.5" y2="86"/>
    <line x1="3800" y1="71" x2="3800" y2="86"/>
    <rect style="fill:#00ff00" x="3773.5" y="101" width="56" height="20" rx="3" ry="3"/>
    <text x="3801.5" y="111" text-anchor="middle" dominant-baseline="middle">Marvins</text>
    <line x1="3801.5" y1="86" x2="3801.5" y2="101"/>
    <rect style="fill:#00ff00" x="3834.5" y="101" width="24" height="20" rx="3" ry="3"/>
    <text x="3846.5" y="111" text-anchor="middle" dominant-baseline="middle">Lee</text>
    <line x1="3846.5" y1="86" x2="3846.5" y2="101"/>
    <rect style="fill:#00ff00" x="3863.5" y="101" width="32" height="20" rx="3" ry="3"/>
    <text x="3879.5" y="111" text-anchor="middle" dominant-baseline="middle">Ande</text>
    <line x1="3879.5" y1="86" x2="3879.5" y2="101"/>
    <rect style="fill:#00ff00" x="3900.5" y="101" width="40" height="20" rx="3" ry="3"/>
    <text x="3920.5" y="111" text-anchor="middle" dominant-baseline="middle">Banda</text>
    <line x1="3920.5" y1="86" x2="3920.5" y2="101"/>
    <rect style="fill:#00ff00" x="3960.5" y="101" width="32" height="20" rx="3" ry="3"/>
    <text x="3976.5" y="111" text-anchor="middle" dominant-baseline="middle">Ozer</text>
    <line x1="3976.5" y1="86" x2="3976.5" y2="101"/>
    <rect style="fill:#00ff00" x="3997.5" y="101" width="40" height="20" rx="3" ry="3"/>
    <text x="4017.5" y="111" text-anchor="middle" dominant-baseline="middle">Bloom</text>
    <line x1="4017.5" y1="86" x2="4017.5" y2="101"/>
    <rect style="fill:#00ff00" x="4042.5" y="101" width="24" height="20" rx="3" ry="3"/>
    <text x="4054.5" y="111" text-anchor="middle" dominant-baseline="middle">Fox</text>
    <line x1="4054.5" y1="86" x2="4054.5" y2="101"/>
    <rect style="fill:#00ff00" x="4045" y="51" width="72" height="20" rx="3" ry="3"/>
    <text x="4081" y="61" text-anchor="middle" dominant-baseline="middle">Cambrault</text>
    <line x1="4081" y1="36" x2="4081" y2="51"/>
    <line x1="3976.5" y1="86" x2="4181.5" y2="86"/>
    <line x1="4081" y1="71" x2="4081" y2="86"/>
    <rect style="fill:#00ff00" x="4071.5" y="101" width="40" height="20" rx="3" ry="3"/>
    <text x="4091.5" y="111" text-anchor="middle" dominant-baseline="middle">Smith</text>
    <line x1="4091.5" y1="86" x2="4091.5" y2="101"/>
    <rect style="fill:#00ff00" x="4116.5" y="101" width="40" height="20" rx="3" ry="3"/>
    <text x="4136.5" y="111" text-anchor="middle" dominant-baseline="middle">Bates</text>
    <line x1="4136.5" y1="86" x2="4136.5" y2="101"/>
    <rect style="fill:#00ff00" x="4161.5" y="101" width="40" height="20" rx="3" ry="3"/>
    <text x="4181.5" y="111" text-anchor="middle" dominant-baseline="middle">Kumar</text>
    <line x1="4181.5" y1="86" x2="4181.5" y2="101"/>
    <rect style="fill:#00ff00" x="4221.5" y="101" width="32" height="20" rx="3" ry="3"/>
    <text x="4237.5" y="111" text-anchor="middle" dominant-baseline="middle">Abel</text>
    <line x1="4237.5" y1="86" x2="4237.5" y2="101"/>
    <rect style="fill:#00ff00" x="4258.5" y="101" width="48" height="20" rx="3" ry="3"/>
    <text x="4282.5" y="111" text-anchor="middle" dominant-baseline="middle">Hutton</text>
    <line x1="4282.5" y1="86" x2="4282.5" y2="101"/>
    <rect style="fill:#00ff00" x="4311.5" y="101" width="48" height="20" rx="3" ry="3"/>
    <text x="4335.5" y="111" text-anchor="middle" dominant-baseline="middle">Taylor</text>
    <line x1="4335.5" y1="86" x2="4335.5" y2="101"/>
    <rect style="fill:#00ff00" x="4358" y="51" width="56" height="20" rx="3" ry="3"/>
    <text x="4386" y="61" text-anchor="middle" dominant-baseline="middle">Zlotkey</text>
    <line x1="4386" y1="36" x2="4386" y2="51"/>
    <line x1="4237.5" y1="86" x2="4522.5" y2="86"/>
    <line x1="4386" y1="71" x2="4386" y2="86"/>
    <rect style="fill:#00ff00" x="4364.5" y="101" width="80" height="20" rx="3" ry="3"/>
    <text x="4404.5" y="111" text-anchor="middle" dominant-baseline="middle">Livingston</text>
    <line x1="4404.5" y1="86" x2="4404.5" y2="101"/>
    <rect style="fill:#00ff00" x="4449.5" y="101" width="40" height="20" rx="3" ry="3"/>
    <text x="4469.5" y="111" text-anchor="middle" dominant-baseline="middle">Grant</text>
    <line x1="4469.5" y1="86" x2="4469.5" y2="101"/>
    <rect style="fill:#00ff00" x="4494.5" y="101" width="56" height="20" rx="3" ry="3"/>
    <text x="4522.5" y="111" text-anchor="middle" dominant-baseline="middle">Johnson</text>
    <line x1="4522.5" y1="86" x2="4522.5" y2="101"/>
    <rect style="fill:#00ff00" x="4546.5" y="51" width="72" height="20" rx="3" ry="3"/>
    <text x="4582.5" y="61" text-anchor="middle" dominant-baseline="middle">Hartstein</text>
    <line x1="4582.5" y1="36" x2="4582.5" y2="51"/>
    <line x1="4582.5" y1="86" x2="4582.5" y2="86"/>
    <line x1="4582.5" y1="71" x2="4582.5" y2="86"/>
    <rect style="fill:#00ff00" x="4570.5" y="101" width="24" height="20" rx="3" ry="3"/>
    <text x="4582.5" y="111" text-anchor="middle" dominant-baseline="middle">Fay</text>
    <line x1="4582.5" y1="86" x2="4582.5" y2="101"/>
  </g>
</svg>
